<svg id="Layer_1" data-name="Layer 1" xmlns="http://www.w3.org/2000/svg" viewBox="0 0 540.06 678.79"><defs><style>.cls-1{fill:#3C99D4;}</style></defs><path class="cls-1" d="M544.13,595.61V47.36c0-21.39-18.07-38.15-41.34-38.15H181.66a9.39,9.39,0,0,0-6.5,2.39L65.57,112.34a8.05,8.05,0,0,0-2,2.76,6.42,6.42,0,0,0-.67,2.9V595.61c0,21.4,18.31,39,41.58,39H502.79C526.06,634.6,544.13,617,544.13,595.61ZM172.76,36.75V87.34c0,12.46-10.73,23.54-23.72,23.54H92.13ZM81.06,595.61V127.31h68c22.79,0,40.71-18.62,40.71-40V26.67h313C516.1,26.67,526,35,526,47.36V595.61c0,12.36-9.91,22.56-23.22,22.56H104.52C91.21,618.17,81.06,608,81.06,595.61Z" transform="translate(-62.94 -9.21)"/><path class="cls-1" d="M561.72,62.93c-4.91,0-8.59,3.61-8.59,8.06s4,8.06,9,8.06c13.35,0,23.94,9.68,23.94,22V649.34c0,12.36-10.69,22.23-24,22.23H163.76c-13.31,0-23.74-9.71-23.74-22.07,0-4.45-4-8.1-8.89-8.1s-8.88,3.74-8.88,8.19c0,21.4,18.23,38.41,41.51,38.41H562c23.28,0,41-17.26,41-38.66V101.09C603,80.05,584.65,62.93,561.72,62.93Z" transform="translate(-62.94 -9.21)"/><path class="cls-1" d="M227.39,145.79H454c4.91,0,8.89-3.76,8.89-8.21s-4-8.22-8.89-8.22H227.39c-4.91,0-8.89,3.77-8.89,8.22S222.48,145.79,227.39,145.79Z" transform="translate(-62.94 -9.21)"/><path class="cls-1" d="M159.27,223.84H397.69c4.91,0,8.88-3.25,8.88-7.7s-4-7.71-8.88-7.71H159.27c-4.91,0-8.89,3.26-8.89,7.71S154.36,223.84,159.27,223.84Z" transform="translate(-62.94 -9.21)"/><path class="cls-1" d="M459.89,282.37H159.27c-4.91,0-8.89,3.25-8.89,7.7s4,7.71,8.89,7.71H459.89c4.9,0,8.88-3.26,8.88-7.71S464.79,282.37,459.89,282.37Z" transform="translate(-62.94 -9.21)"/><path class="cls-1" d="M159.27,373.77H339.93c4.91,0,8.89-3.77,8.89-8.22s-4-8.21-8.89-8.21H159.27c-4.91,0-8.89,3.76-8.89,8.21S154.36,373.77,159.27,373.77Z" transform="translate(-62.94 -9.21)"/><path class="cls-1" d="M459.89,431.27H159.27c-4.91,0-8.89,3.77-8.89,8.22s4,8.21,8.89,8.21H459.89c4.9,0,8.88-3.76,8.88-8.21S464.79,431.27,459.89,431.27Z" transform="translate(-62.94 -9.21)"/><path class="cls-1" d="M264.41,506.24H159.27c-4.91,0-8.89,3.76-8.89,8.21s4,8.22,8.89,8.22H264.41c4.91,0,8.89-3.77,8.89-8.22S269.32,506.24,264.41,506.24Z" transform="translate(-62.94 -9.21)"/></svg>