<svg id="Layer_1" data-name="Layer 1" xmlns="http://www.w3.org/2000/svg" viewBox="0 0 198 97.28"><defs><style>.cls-1{fill:#0d3d59;}</style></defs><path class="cls-1" d="M152.55,61.08a15.43,15.43,0,1,1-15.43,15.43,15.43,15.43,0,0,1,15.43-15.43m0-6.46a21.9,21.9,0,1,0,21.89,21.89,21.92,21.92,0,0,0-21.89-21.89Z" transform="translate(-1 -1.12)"/><path class="cls-1" d="M45.75,61.5a15,15,0,1,1-15,15,15,15,0,0,1,15-15m0-6.46A21.48,21.48,0,1,0,67.22,76.51,21.49,21.49,0,0,0,45.75,55Z" transform="translate(-1 -1.12)"/><path class="cls-1" d="M91.06,7.58c34.39,0,54.58,28.4,55.43,29.61l-.23.16c24,3.51,36.77,12.14,36.77,12.14s-.9,13.51,4.5,16.21,5.86,7.2,4.06,9.45-13.51,5.41-13.51,5.41h-5a21.56,21.56,0,0,0,.4-4,20.9,20.9,0,1,0-41.4,4h-26.9L66.27,80.4a21.65,21.65,0,0,0,.37-3.89A20.9,20.9,0,1,0,25.2,80.24L16,80.2c-5.85-1.8-8.55-2.35-8.55-8.2s5.85-5.85,5.85-5.85a65,65,0,0,1,17-23.68l-.14-.11C31.33,40.94,58.42,7.58,91.06,7.58m0-6.46c-15.06,0-30.6,6.13-46.2,18.21a126.54,126.54,0,0,0-19.71,19l-.31.39A71.59,71.59,0,0,0,8.77,60.53,11.81,11.81,0,0,0,1,72C1,82.37,7.85,84.46,13.35,86.14l.76.24.92.28h1l9.18,0,7.76,0-1.37-7.64a14.13,14.13,0,0,1-.25-2.58,14.44,14.44,0,0,1,28.87,0,15.2,15.2,0,0,1-.26,2.7l-1.44,7.62,7.76,0,38.89.16H139.9l-1.51-7.71a14.93,14.93,0,0,1-.28-2.8,14.44,14.44,0,0,1,28.88,0,14.93,14.93,0,0,1-.28,2.8L165.2,87h13.74l.82-.22c13.75-3.71,16-6.54,16.87-7.61a11.15,11.15,0,0,0,2.09-9.44c-.88-4-3.7-7.42-7.95-9.65-.92-1.41-1.55-6.29-1.29-10.18l.25-3.7-3.08-2.08c-.55-.37-13.21-8.77-36.42-12.71C144.52,24.25,123.6,1.12,91.06,1.12Z" transform="translate(-1 -1.12)"/><rect class="cls-1" x="29.73" y="30.18" width="118.31" height="6.46"/><rect class="cls-1" x="69.58" y="15.74" width="31.17" height="6.46" transform="matrix(0.04, -1, 1, 0.04, 61.72, 102.16)"/></svg>