<svg id="Layer_1" data-name="Layer 1" xmlns="http://www.w3.org/2000/svg" viewBox="0 0 194.41 197.96"><defs><style>.cls-1{fill:#3C99D4;}</style></defs><path class="cls-1" d="M100,109.84c21.85,0,39.62-16.94,39.62-37.75S121.85,34.32,100,34.32,60.38,51.26,60.38,72.09,78.16,109.84,100,109.84Zm0-69.35c18.28,0,33.14,14.17,33.14,31.6S118.28,103.67,100,103.67,66.86,89.5,66.86,72.09,81.73,40.49,100,40.49Z" transform="translate(-2.8 -0.7)"/><path class="cls-1" d="M89.87,71.09c2,1.54,5,2.76,9.33,3.74a19.38,19.38,0,0,1,5.82,2,3.67,3.67,0,0,1,1.73,3.18,3.76,3.76,0,0,1-1.62,3.15A6.89,6.89,0,0,1,101,84.32c-3.06,0-6.37-1.26-9.84-3.75l-4,4.74a23.41,23.41,0,0,0,7.14,3.63l1.74.53v2.19h7.37V89.89l1.91-.45a12.62,12.62,0,0,0,5.07-2.34,8.91,8.91,0,0,0,3.53-7.27c0-3-.91-5.28-2.71-6.81a19.14,19.14,0,0,0-8-3.61,28.77,28.77,0,0,1-7.11-2.29A3.56,3.56,0,0,1,94.24,64a3.76,3.76,0,0,1,1.51-3.09,6.08,6.08,0,0,1,3.8-1.11,17.1,17.1,0,0,1,8.51,2.34l3.43-4.72a20.51,20.51,0,0,0-4.37-2c-.6-.2-1.23-.37-1.87-.53l-1.88-.46V52.5H96v2l-1.7.55a13.12,13.12,0,0,0-3.63,1.81,8.5,8.5,0,0,0-3.56,7.3C87.11,67.33,88,69.66,89.87,71.09Z" transform="translate(-2.8 -0.7)"/><path class="cls-1" d="M173.28,51.11V20H128L100,.7,72,20H26.73V51.11L2.8,67.58V198.66H197.2V67.58ZM100,8.32,117,20H83Zm66.8,17.85v60.2L100,129.64,55,100.48,33.2,86.37V26.17ZM26.73,58.72V82.17L9.17,70.8ZM9.28,78.35l85,55-85,55Zm5.26,114.13L100,137.1l85.52,55.38Zm176.18-4.06-84.95-55,85-55ZM173.28,82.17V58.72L190.83,70.8Z" transform="translate(-2.8 -0.7)"/></svg>