<svg id="Layer_1" data-name="Layer 1" xmlns="http://www.w3.org/2000/svg" viewBox="0 0 1774.81 1525.23"><defs><style>.cls-1{fill:#3C99D4;}</style></defs><path class="cls-1" d="M1653.44,362.42H1234V307c0-107-87.06-194.12-194.12-194.12H762.57c-107.05,0-194.12,87.07-194.12,194.12v55.46H149c-74.54,0-135.19,60.65-135.19,135.19v617a134.93,134.93,0,0,0,55.46,108.92v279.32c0,74.54,60.65,135.19,135.19,135.19H1598c74.54,0,135.19-60.65,135.19-135.19V1223.56a134.93,134.93,0,0,0,55.46-108.92v-617C1788.63,423.07,1728,362.42,1653.44,362.42Zm79.73,752.22a79.75,79.75,0,0,1-79.73,79.72H1053.75v-83.19a83.28,83.28,0,0,0-83.2-83.19H831.9a83.28,83.28,0,0,0-83.2,83.19v83.19H149a79.77,79.77,0,0,1-79.73-79.72v-617a81,81,0,0,1,.41-8.14A79.86,79.86,0,0,1,149,417.88H1653.44a79.85,79.85,0,0,1,79.32,71.59,73,73,0,0,1,.41,8.14ZM998.29,1333a27.75,27.75,0,0,1-27.74,27.73H831.9A27.75,27.75,0,0,1,804.17,1333V1111.17a27.75,27.75,0,0,1,27.73-27.73H970.55a27.75,27.75,0,0,1,27.74,27.73ZM623.91,307c0-76.45,62.21-138.66,138.66-138.66h277.31c76.45,0,138.66,62.21,138.66,138.66v55.46H623.91Zm1053.8,1195.92A79.81,79.81,0,0,1,1598,1582.6H204.47a79.81,79.81,0,0,1-79.72-79.72V1247.53a135.63,135.63,0,0,0,24.26,2.3H748.7V1333a83.29,83.29,0,0,0,83.2,83.2H970.55a83.29,83.29,0,0,0,83.2-83.2v-83.19h599.69a135.48,135.48,0,0,0,24.27-2.3Z" transform="translate(-13.82 -112.84)"/></svg>