<svg xmlns="http://www.w3.org/2000/svg" viewBox="0 0 1200 1080"><defs><style>.cls-1{fill:none;}.cls-2{fill:#0f3d59;}</style></defs><g id="Background"><rect class="cls-1" width="1200" height="1080"/></g><g id="ICON"><path class="cls-2" d="M1135.94,239H688.67c13.05-5.13,25.34-10.75,35.53-15.76,6.44-3.17,12.95-6.18,19.37-9.16,40.24-18.66,85.84-39.8,85.84-90.15,0-55.83-51-101.26-113.69-101.26-66.34,0-92.79,54.6-112.11,94.47-.15.31-4.83,10.39-10.21,24.9-6-16-11-27.09-11.2-27.44h0C560,68.75,529.61,6,454.15,6,382.68,6,324.53,57.75,324.53,121.36c0,57,50.07,80.25,98.49,102.7,7.51,3.48,15.12,7,22.66,10.71,3.11,1.53,5.93,2.78,8.92,4.2H54.06C34.15,239,18,253.87,18,272.25v99.84c0,18.38,16.15,33.28,36.06,33.28H99.14v615.71c0,27.57,24.22,49.92,54.09,49.92h883.54c29.87,0,54.09-22.35,54.09-49.92V405.37h45.08c19.91,0,36.06-14.9,36.06-33.28V272.25C1172,253.87,1155.85,239,1135.94,239ZM667.12,372.09H522.87V272.25H667.12ZM636.54,130.7c21.21-43.79,39.3-74.78,79.18-74.78,42.8,0,77.62,30.5,77.62,68,0,28.38-25.06,41.45-66,60.41-6.67,3.1-13.43,6.24-20.13,9.53-48.23,23.69-85.47,31.35-93.58,28.1C609.18,209.66,622.87,158.89,636.54,130.7ZM439.21,194.32c-48.74-22.6-78.62-38.21-78.62-73,0-45.26,42-82.08,93.56-82.08,48.34,0,69.92,36.84,95.13,88.87,17.05,35.22,33.49,97.93,26.67,109.24-.89.79-2.63,1.31-5,1.58H562.7c-18.32-1.38-53.64-10.75-100.07-33.57C454.84,201.57,447,197.92,439.21,194.32ZM54.06,372.09V272.25H486.81v99.84H54.06Zm99.17,665.63c-9.94,0-18-7.47-18-16.64V405.37H486.81v632.35Zm369.64,0V405.37H667.12v632.35Zm531.93-16.64c0,9.17-8.09,16.64-18,16.64H703.19V405.37H1054.8Zm81.14-649H703.19V272.25h432.75Z" transform="translate(0 0)"/></g></svg>