<svg id="Layer_1" data-name="Layer 1" xmlns="http://www.w3.org/2000/svg" viewBox="0 0 489 481"><defs><style>.cls-1{fill:#3C99D4;}</style></defs><path class="cls-1" d="M487.66,233.56l-79.11-81.2V47a9.46,9.46,0,0,0-9.28-9.63h-64A9.46,9.46,0,0,0,325.94,47V67.56l-46.7-47.94a41.35,41.35,0,0,0-59.48,0L11.34,233.56a22.78,22.78,0,0,0-.17,31.36l.3.31a20.81,20.81,0,0,0,30.21.18L240.51,61.32a12.44,12.44,0,0,1,18,0L457.32,265.41a20.81,20.81,0,0,0,30.21-.18l.3-.31A22.78,22.78,0,0,0,487.66,233.56Zm-9.83,21.09-.3.32a7.12,7.12,0,0,1-5.19,2.25h0a7.12,7.12,0,0,1-5.13-2.19L268.38,50.94a26.14,26.14,0,0,0-37.76,0L31.79,255A7.11,7.11,0,0,1,21.47,255l-.3-.32a7.79,7.79,0,0,1,.06-10.71L229.65,30a27.63,27.63,0,0,1,39.7,0L340,102.53V52h54.48V158.45l83.28,85.49A7.79,7.79,0,0,1,477.83,254.65Z" transform="translate(-5 -7)"/><path class="cls-1" d="M421.2,258.58,256.69,88.16a9.93,9.93,0,0,0-14.38,0L77.8,258.58a22.62,22.62,0,0,0-6.27,15.69V478.59A9.24,9.24,0,0,0,80.59,488h100.6a9.33,9.33,0,0,0,9.14-9.49V318.32a9.32,9.32,0,0,1,9.14-9.49H299.54a9.32,9.32,0,0,1,9.13,9.49V478.51a9.33,9.33,0,0,0,9.14,9.49h100.6a9.24,9.24,0,0,0,9.06-9.41V274.27A22.62,22.62,0,0,0,421.2,258.58ZM322.74,473.4V318.32c0-13.29-10.41-24.09-23.2-24.09H199.47c-12.8,0-23.21,10.8-23.21,24.09V473.4H85.59V274.27a7.64,7.64,0,0,1,2.14-5.35L249.5,101.34,411.27,268.92a7.64,7.64,0,0,1,2.14,5.35V473.4Z" transform="translate(-5 -7)"/></svg>