<svg xmlns="http://www.w3.org/2000/svg" width="25" height="25" viewBox="0 0 25 25">
  <path id="instagram" d="M21.016,6.922a1.562,1.562,0,0,1-.109.547,1.891,1.891,0,0,1-.312.469,1.562,1.562,0,0,1-.469.312,1.437,1.437,0,0,1-.562.109,1.312,1.312,0,0,1-.547-.109,1.375,1.375,0,0,1-.469-.312,1.3,1.3,0,0,1-.312-.469,1.313,1.313,0,0,1-.109-.547,1.406,1.406,0,0,1,.422-1.031,1.453,1.453,0,0,1,1.016-.422,1.562,1.562,0,0,1,1.031.422,1.469,1.469,0,0,1,.422,1.031ZM25.61,13.5h0l-.078,5.234a7.359,7.359,0,0,1-2.125,5.047,7.25,7.25,0,0,1-5,2.078L13.11,26h0l-5.25-.094A7.234,7.234,0,0,1,.688,18.7L.61,13.5h0L.688,8.188A7.234,7.234,0,0,1,7.844,1H18.407a7.234,7.234,0,0,1,7.125,7.188Zm-2.328,0V8.266a4.937,4.937,0,0,0-4.875-4.906H7.954A4.906,4.906,0,0,0,3.016,8.219L2.938,13.5v5.219A4.906,4.906,0,0,0,7.8,23.578l5.234.094,5.375-.141a4.938,4.938,0,0,0,4.875-4.859Zm-3.75,0a6.422,6.422,0,1,1-1.891-4.547A6.422,6.422,0,0,1,19.532,13.5Zm-2.328,0A4.094,4.094,0,1,0,16,16.344,4.078,4.078,0,0,0,17.2,13.5Z" transform="translate(-0.61 -1)" fill="#fff"/>
</svg>
