<svg id="Layer_1" data-name="Layer 1" xmlns="http://www.w3.org/2000/svg" viewBox="0 0 191 194"><defs><style>.cls-1{fill:none;stroke:#324c5e;stroke-linecap:round;stroke-linejoin:round;}</style></defs><path class="cls-1" d="M12,7.3h36.3c3.29,0,6,3,6,6.55v175.6c0,3.6-2.69,6.55-6,6.55H12c-3.28,0-6-2.95-6-6.55V13.85c0-3.6,2.69-6.55,6-6.55ZM41.52,46.44H18.74m0-17.27H41.52m0,140.88H18.74m0-17.28H41.52M61,7.3h36.3c3.29,0,6,3,6,6.55v175.6c0,3.6-2.7,6.55-6,6.55H61c-3.29,0-6-2.95-6-6.55V13.85c0-3.6,2.69-6.55,6-6.55ZM90.5,46.44H67.72m0-17.27H90.5m0,140.88H67.72m0-17.28H90.5M111.9,13.51,147,3.22a6,6,0,0,1,7.32,4.63L195.8,177.47a6.66,6.66,0,0,1-4.23,8l-35.06,10.29a6,6,0,0,1-7.33-4.63L107.67,21.53a6.64,6.64,0,0,1,4.23-8Zm37.78,29.43-22,6.46m-4.09-16.69,22-6.45m33.3,136.08-22,6.45m-4.08-16.68,22-6.46" transform="translate(-5.5 -2.5)"/></svg>