<svg xmlns="http://www.w3.org/2000/svg" width="26.162" height="25" viewBox="0 0 26.162 25">
  <path id="LinkedIn" d="M26.162,24.922v9.672H20.554V25.573c0-2.269-.809-3.814-2.841-3.814a3.066,3.066,0,0,0-2.877,2.05,3.88,3.88,0,0,0-.189,1.369V34.6H9.039s.073-15.286,0-16.867h5.608v2.391l-.036.055h.036v-.055A5.566,5.566,0,0,1,19.7,17.337C23.394,17.331,26.162,19.746,26.162,24.922ZM3.175,9.6A2.922,2.922,0,1,0,3.1,15.427h.036A2.923,2.923,0,1,0,3.175,9.6ZM.335,34.6H5.943V17.727H.335Z" transform="translate(0 -9.6)" fill="#fff"/>
</svg>
