<svg xmlns="http://www.w3.org/2000/svg" width="89.545" height="87.525" viewBox="0 0 89.545 87.525" fill="#0C415F" id="logo1">
  <g id="noun_Pig_227670" transform="translate(-5.374 -6.186)">
    <g id="Group_81" data-name="Group 81">
      <path id="Path_126" data-name="Path 126" d="M50.157,93.705c-.225,0-.453,0-.682,0h0c-12.14,0-23.118-3.309-31.142-9.75h0C10.318,77.541,5.371,67.922,5.376,55.889h0c0-.027,0-.064,0-.115h0A42.127,42.127,0,0,1,18.306,25.289h0A44.712,44.712,0,0,1,49.5,12.875h0c.214,0,.438,0,.67.006h0c.2,0,.4-.006.615-.006h0A44.707,44.707,0,0,1,81.982,25.287h0A42.113,42.113,0,0,1,94.914,55.695h0l0,.05v.089c.021,12.06-4.929,21.7-12.957,28.126h0c-8.023,6.441-19,9.746-31.141,9.75h0c-.232,0-.46,0-.664,0ZM9.1,55.79v.043c.018,11.054,4.381,19.424,11.564,25.223h0c7.193,5.787,17.333,8.932,28.81,8.932h0c.214,0,.436,0,.682,0h0c.225,0,.443,0,.664,0h0c11.474,0,21.615-3.138,28.807-8.925h0C86.8,75.267,91.16,66.92,91.194,55.894h0c0-.035,0-.076,0-.126h0c0-21.942-17.981-39.153-40.4-39.171h0c-.192,0-.4,0-.608.007h-.086c-.188,0-.382-.007-.591-.007h0C27.1,16.615,9.127,33.8,9.1,55.724h0s0,0,0,.015h0l0,.051Zm83.958.043,1.851-.185-1.851.185Z"/>
      <path id="Path_127" data-name="Path 127" d="M34.837,43.667a4.225,4.225,0,1,1-4.225-4.224,4.224,4.224,0,0,1,4.225,4.224"/>
      <path id="Path_128" data-name="Path 128" d="M73.913,43.667a4.225,4.225,0,1,1-4.225-4.224,4.224,4.224,0,0,1,4.225,4.224"/>
      <path id="Path_129" data-name="Path 129" d="M38.208,81.05a14.535,14.535,0,0,1-14.5-14.5h0a14.538,14.538,0,0,1,14.5-14.5H62.127a14.541,14.541,0,0,1,14.506,14.5h0a14.541,14.541,0,0,1-14.506,14.5h0V77.325a10.837,10.837,0,0,0,10.78-10.777h0a10.841,10.841,0,0,0-10.78-10.782h0l-23.919,0A10.835,10.835,0,0,0,27.429,66.548h0A10.842,10.842,0,0,0,38.208,77.329H62.127V81.05Z"/>
      <path id="Path_130" data-name="Path 130" d="M44.482,66.413a3.846,3.846,0,1,1-3.845-3.847,3.847,3.847,0,0,1,3.845,3.847"/>
      <path id="Path_131" data-name="Path 131" d="M63.3,66.413a3.846,3.846,0,1,1-3.845-3.847A3.847,3.847,0,0,1,63.3,66.413"/>
      <path id="Path_132" data-name="Path 132" d="M13.443,33.256c-.372-1.087-.832-2.508-1.292-4.125a47.993,47.993,0,0,1-2.1-12.237,10.257,10.257,0,0,1,1.1-5.28c.733-1.085,1.52-1.653,3.483-1.7h.114c3.075,0,8.686,2.18,17.123,8.068a37.3,37.3,0,0,1,4.363-1.445c-10.056-7.3-16.672-10.286-21.6-10.345A7.424,7.424,0,0,0,8,9.64,13.761,13.761,0,0,0,6.331,16.9c.036,8.833,4.442,19.875,4.46,19.985l.346.884a43.164,43.164,0,0,1,2.775-4.842Z"/>
      <path id="Path_133" data-name="Path 133" d="M84.058,9.911c1.966.05,2.753.618,3.487,1.7a10.274,10.274,0,0,1,1.1,5.282,48.176,48.176,0,0,1-2.091,12.236c-.391,1.367-.775,2.58-1.111,3.583.542.732,1.074,1.491,1.594,2.286l.226-.316L87.036,35c.335.513.662,1.042.986,1.581.68-1.819,4.315-11.663,4.346-19.686A13.733,13.733,0,0,0,90.7,9.64a7.435,7.435,0,0,0-6.643-3.454C79.163,6.248,72.6,9.2,62.634,16.413a40.482,40.482,0,0,1,4.233,1.539C75.387,12.007,81.02,9.854,84.058,9.911Z"/>
    </g>
  </g>
</svg>
