<svg id="Layer_1" data-name="Layer 1" xmlns="http://www.w3.org/2000/svg" viewBox="0 0 493.18 491.8"><defs><style>.cls-1{fill:#3C99D4;}</style></defs><path class="cls-1" d="M488.34,417.09l-90.43-90.43a1.85,1.85,0,0,1,.53-3l52.91-24.45a23.55,23.55,0,0,0,.61-43.07L160.65,128.71a23.55,23.55,0,0,0-31.34,31.07l127.5,291.41.13.29A23.37,23.37,0,0,0,278.26,465h.56a23.39,23.39,0,0,0,21-14l24.57-53.18a1.85,1.85,0,0,1,3-.54l90.44,90.45a23.55,23.55,0,0,0,33.29,0l37.27-37.26A23.58,23.58,0,0,0,488.34,417.09ZM155.94,152.82,437.29,275.93a1.85,1.85,0,0,1,0,3.37l-59.41,27.44a17.8,17.8,0,0,0-5.12,28.73l94.36,94.36a5.54,5.54,0,0,1,0,7.83l-28.82,28.81a5.53,5.53,0,0,1-7.82,0l-94.37-94.36a17.92,17.92,0,0,0-12.58-5.21,18.28,18.28,0,0,0-3.12.28,17.8,17.8,0,0,0-13,10.05L280,436.65a1.85,1.85,0,0,1-3.37,0L153.51,155.25A1.85,1.85,0,0,1,155.94,152.82Z" transform="translate(-2.05 -2.74)"/><path class="cls-1" d="M150,14.1V82.74a11.36,11.36,0,1,1-22.71,0V14.1a11.36,11.36,0,1,1,22.71,0Z" transform="translate(-2.05 -2.74)"/><path class="cls-1" d="M58.12,42.75l48.54,48.54A11.36,11.36,0,0,1,90.6,107.35L42.06,58.81A11.36,11.36,0,0,1,58.12,42.75Z" transform="translate(-2.05 -2.74)"/><path class="cls-1" d="M13.4,128H82.05a11.36,11.36,0,0,1,0,22.71H13.4a11.36,11.36,0,0,1,0-22.71Z" transform="translate(-2.05 -2.74)"/><path class="cls-1" d="M42.06,219.89,90.6,171.35a11.36,11.36,0,0,1,16.06,16.06L58.12,236a11.36,11.36,0,0,1-16.06-16.06Z" transform="translate(-2.05 -2.74)"/><path class="cls-1" d="M235.25,58.81l-48.54,48.54a11.35,11.35,0,0,1-16.06-16l48.54-48.54a11.35,11.35,0,1,1,16.06,16.05Z" transform="translate(-2.05 -2.74)"/></svg>