<svg id="Layer_1" data-name="Layer 1" xmlns="http://www.w3.org/2000/svg" viewBox="0 0 64 64"><defs><style>.cls-1{fill:none;}.cls-2{fill:#0f3d59;}</style></defs><rect class="cls-1" width="64" height="64"/><path class="cls-2" d="M63.58,39.68A3.69,3.69,0,0,0,58.88,38L47.67,42.58v-.1a4.37,4.37,0,0,0-4.37-4.34h0l-6.77,0a28.48,28.48,0,0,1-5-.41c-2.3-.39-5.84-1-9.72-2-5.28-1.33-10.47,1.65-13.17,3.62A2.27,2.27,0,0,0,6.3,37.2h-4A2.29,2.29,0,0,0,0,39.48V57.86a2.29,2.29,0,0,0,2.29,2.28h4a2.29,2.29,0,0,0,2.29-2.28v0c.75-.83,6.2-6,20.74-1.72l.14,0c8.24,1.32,12.56-.05,14.74-1.43s3.75-2.26,5.85-3.42l12-6.69A3.66,3.66,0,0,0,63.58,39.68ZM2.29,57.86V39.48h4v1.76h0V57h0v.81ZM61,42.59,49,49.28c-2.13,1.18-3.82,2.12-6,3.49-1.5.95-5.2,2.37-13.08,1.11-12-3.5-18.41-1-21.31,1V42.25C10.05,41,15.76,36.6,21.18,38c3.95,1,7.56,1.67,9.9,2.07a33.9,33.9,0,0,0,5.43.44l6.78,0h0A2.08,2.08,0,0,1,45,43.79l-.13.15,0,0a2,2,0,0,1-1.47.61H27.89a1.15,1.15,0,0,0,0,2.29H43.31a4.32,4.32,0,0,0,3.09-1.29l0,0,13.32-5.5a1.42,1.42,0,0,1,1.8.67A1.38,1.38,0,0,1,61,42.59Z" transform="translate(0)"/><path class="cls-2" d="M35.15,32.72A14.86,14.86,0,1,0,20.29,17.86,14.87,14.87,0,0,0,35.15,32.72Zm0-27.43A12.57,12.57,0,1,1,22.58,17.86,12.59,12.59,0,0,1,35.15,5.29Z" transform="translate(0)"/><path class="cls-2" d="M35.17,22.88c-1.1,0-1.78-.6-1.8-1.9H30.75c0,2.39,1.27,3.89,3.32,4.26V26.8h2.11V25.26a3.87,3.87,0,0,0,3.36-4c0-4.52-5.91-4.6-5.91-7.11a1.34,1.34,0,0,1,1.52-1.36c1,0,1.55.56,1.57,1.71h2.62a3.8,3.8,0,0,0-3.16-4V8.91H34.07v1.57a3.58,3.58,0,0,0-3,3.64c0,4.34,5.85,4.54,5.85,7.15A1.53,1.53,0,0,1,35.17,22.88Z" transform="translate(0)"/></svg>