<svg xmlns="http://www.w3.org/2000/svg" width="30.797" height="25" viewBox="0 0 30.797 25">
  <path id="twitter" d="M9.65,43.876c11.619,0,17.974-9.627,17.974-17.976,0-.273,0-.545-.018-.816a12.857,12.857,0,0,0,3.151-3.264,12.641,12.641,0,0,1-3.629.995A6.338,6.338,0,0,0,29.9,19.32a12.654,12.654,0,0,1-4.011,1.54,6.321,6.321,0,0,0-10.76,5.749,17.944,17.944,0,0,1-13.02-6.6,6.349,6.349,0,0,0,1.955,8.432,6.285,6.285,0,0,1-2.867-.79v.08a6.341,6.341,0,0,0,5.068,6.194,6.334,6.334,0,0,1-2.853.108,6.34,6.34,0,0,0,5.9,4.388,12.7,12.7,0,0,1-7.852,2.71,12.912,12.912,0,0,1-1.5-.092A17.887,17.887,0,0,0,9.644,43.87" transform="translate(0.04 -18.876)" fill="#fff"/>
</svg>
