<svg xmlns="http://www.w3.org/2000/svg" viewBox="0 0 1500 1500"><defs><style>.cls-1{fill:none;}.cls-2{fill:#0f3d59;}</style></defs><g id="Layer_1" data-name="Layer 1"><rect class="cls-1" width="1500" height="1500"/></g><g id="Layer_2" data-name="Layer 2"><path class="cls-2" d="M1459.44,1429.36h-95.66c-98.13-154-265-253.57-447.11-268.66l168.42-431.1c62.58-27.9,121-14.47,159.84,2.45,56.3,24.54,106.32,71.88,137.23,129.89a33.78,33.78,0,0,0,62.9-9.5c19-102.31-17.27-204.59-91.12-272.73a236.21,236.21,0,0,1,90.65,23.48,33.92,33.92,0,0,0,40.35-8.14,33,33,0,0,0,2.2-40.66C1426.61,467.67,1331,420.58,1234.4,427c-.72-61.28-26.27-111.72-27.61-114.33a33.6,33.6,0,0,0-20-16.69,34.11,34.11,0,0,0-26.07,2.56c-2.44,1.32-46.52,25.44-81.4,69.83l-9.74-14.46a33.92,33.92,0,0,0-46.7-9.23,33.08,33.08,0,0,0-9.33,46.17L1053,449.39a33.85,33.85,0,0,0,59.25-6c10.86-26.68,30.75-48.11,48.06-62.93,5.8,21.94,10,50.77,3.69,78.78a33.06,33.06,0,0,0,9.37,31.05,34,34,0,0,0,31.63,8.47c46.28-11.39,93.12-6,135.06,14a306.22,306.22,0,0,0-88,13.35,33.17,33.17,0,0,0-4.37,62,232.7,232.7,0,0,1,128.15,154.35c-30.55-30.29-66-54.85-103.73-71.31-66.93-29.16-136.95-31.8-200.34-8.11-51.91-73.48-140.32-114.29-243.11-110.53A33.3,33.3,0,1,0,831.16,619c83.57-3.13,152,29.23,190.12,89.18L874.8,1083.13C773.13,726,636.17,590,589.1,552c10.34-158.3,171-252.31,326.51-252.31a33.63,33.63,0,0,0,31.81-22.39,33.06,33.06,0,0,0-11-37.06c-65.27-50.8-143.6-77.66-226.49-77.66a373,373,0,0,0-141.43,28A295.54,295.54,0,0,1,659.94,83.92a33.08,33.08,0,0,0,11.52-39.09A33.72,33.72,0,0,0,636.12,24C504.68,39.51,397.64,117.6,351.8,227.64,282.94,190,208.66,188.45,204.93,188.4a33.63,33.63,0,0,0-24.26,9.75,33.06,33.06,0,0,0-9.86,24c.05,3.68,1.57,77.12,39.68,145.21C99.2,412.69,20.24,518.54,4.5,648.52a33.22,33.22,0,0,0,21.12,34.94,33.88,33.88,0,0,0,39.52-11.39,297.37,297.37,0,0,1,107.62-90.3,359.56,359.56,0,0,0,50.42,363.71,33.81,33.81,0,0,0,26.47,12.7,34.17,34.17,0,0,0,11-1.83,33.32,33.32,0,0,0,22.65-31.46c0-155.67,97.47-316.49,261.16-323.1C578.6,628.3,724.14,761.1,825.92,1160.21c-184.4,13.43-353.74,113.55-452.92,269.15H37.93a33.29,33.29,0,1,0,0,66.58H1459.44a33.29,33.29,0,1,0,0-66.58ZM306.93,657.66c-36.71,45.73-63.47,101.7-78.12,161.5A293.26,293.26,0,0,1,272.4,542.84a33,33,0,0,0,1.77-37.61,33.74,33.74,0,0,0-28.61-15.76,34.82,34.82,0,0,0-6.24.57,368.92,368.92,0,0,0-130.89,51.44c35.39-62.22,92.47-106.8,163.09-124a33.53,33.53,0,0,0,24-22.07,33,33,0,0,0-6.35-31.79c-27.9-32.54-40.57-74.12-46.31-103.94C273.09,265.42,315.28,278,348,305.43a34,34,0,0,0,32.15,6.28A33.46,33.46,0,0,0,402.5,288C419.87,218.16,465,161.7,527.88,126.72a360.12,360.12,0,0,0-52,129.44,33.13,33.13,0,0,0,15.36,34.45,34,34,0,0,0,38-1.75c51.52-38.53,115.68-59.75,180.68-59.75a300.45,300.45,0,0,1,99,16.58c-60.58,14.47-117.28,41-163.61,77.31-71.09,55.79-113.81,130.71-122.49,213.53C439.12,545.11,363.35,587.36,306.93,657.66Zm147.85,771.7C552,1302.15,705.49,1225.2,868.39,1225.2s316.42,77,413.61,204.16Z"/></g></svg>